<?xml version="1.0" encoding="utf-8"?>
<!-- Generator: Adobe Illustrator 25.4.1, SVG Export Plug-In . SVG Version: 6.00 Build 0)  -->
<svg version="1.1" id="Layer_1" xmlns="http://www.w3.org/2000/svg" xmlns:xlink="http://www.w3.org/1999/xlink" x="0px" y="0px"
	 viewBox="0 0 122.9 121" style="enable-background:new 0 0 122.9 121;" xml:space="preserve">
<style type="text/css">
	.st0{fill:#636363;}
	.st1{fill-rule:evenodd;clip-rule:evenodd;fill:#EF4136;}
	.st2{fill-rule:evenodd;clip-rule:evenodd;fill:#C72B20;}
	.st3{fill:#1A1A1A;}
</style>
<g>
	<path class="st0" d="M119.3,40v68.2c-0.1,5-4.1,9.1-9.1,9.1H12.8c-5,0-9.1-4.1-9.1-9.1V40H119.3 M122.3,37h-3H3.7h-3v3v68.2
		c0,6.7,5.4,12.1,12.1,12.1h97.4c6.5,0,12-5.4,12.1-12l0,0v0V40V37L122.3,37z"/>
</g>
<path class="st1" d="M11.5,6.7h99.8c6.4,0,11.5,5.2,11.5,11.5v26.7H0V18.2C0,11.8,5.2,6.7,11.5,6.7z M36.3,16.4
	c5.1,0,9.3,4.2,9.3,9.3S41.5,35,36.3,35S27,30.9,27,25.7l0,0C27,20.6,31.2,16.4,36.3,16.4L36.3,16.4z M86.1,16.4
	c5.1,0,9.3,4.2,9.3,9.3S91.2,35,86.1,35s-9.3-4.2-9.3-9.3l0,0C76.8,20.6,81,16.4,86.1,16.4z"/>
<path class="st2" d="M86.1,14.6c6.1,0,11.1,5,11.1,11.1s-5,11.1-11.1,11.1S75,31.8,75,25.7c0-2.9,1.2-5.8,3.2-7.9l0.1-0.1
	C80.4,15.8,83.2,14.6,86.1,14.6z M86.1,16.4c5.1,0,9.3,4.2,9.3,9.3S91.2,35,86.1,35s-9.3-4.2-9.3-9.3l0,0
	C76.8,20.6,81,16.4,86.1,16.4z"/>
<path class="st2" d="M36.3,14.6c6.1,0,11.1,5,11.1,11.1s-5,11.1-11.1,11.1s-11.1-5-11.1-11.1c0-2.9,1.2-5.8,3.2-7.9l0.1-0.1
	C30.6,15.8,33.4,14.6,36.3,14.6z M36.3,16.4c5.1,0,9.3,4.2,9.3,9.3S41.5,35,36.3,35S27,30.9,27,25.7l0,0
	C27,20.6,31.2,16.4,36.3,16.4L36.3,16.4z"/>
<path class="st3" d="M80.5,4.6C80.5,2,83,0,86.1,0s5.6,2,5.6,4.6v21.2c0,2.5-2.5,4.6-5.6,4.6s-5.6-2-5.6-4.6V4.6z"/>
<path class="st3" d="M30.8,4.6C30.8,2,33.2,0,36.3,0s5.6,2,5.6,4.6v21.2c0,2.5-2.5,4.6-5.6,4.6s-5.6-2-5.6-4.6
	C30.8,25.8,30.8,4.6,30.8,4.6z"/>
</svg>
